<?xml version="1.0" standalone="no"?>
<!DOCTYPE svg PUBLIC "-//W3C//DTD SVG 20010904//EN"
 "http://www.w3.org/TR/2001/REC-SVG-20010904/DTD/svg10.dtd">
<svg version="1.0" xmlns="http://www.w3.org/2000/svg"
 width="132.000000pt" height="40.000000pt" viewBox="0 0 811.000000 245.000000"
 preserveAspectRatio="xMidYMid meet">
<g transform="translate(0.000000,245.000000) scale(0.100000,-0.100000)"
fill="#052a82" stroke="none">
<path d="M1683 2403 c-18 -11 -122 -134 -253 -303 -122 -157 -236 -303 -253
-325 -33 -41 -143 -189 -312 -419 -57 -78 -106 -136 -116 -136 -9 0 -67 24
-130 54 -144 69 -216 96 -253 96 -58 0 -193 -85 -267 -168 -70 -79 -86 -147
-36 -156 12 -2 68 -12 124 -21 95 -15 309 -68 320 -79 3 -2 -41 -42 -98 -88
-286 -232 -306 -259 -232 -311 129 -89 276 -119 385 -77 82 30 179 109 276
225 64 76 90 99 106 97 33 -4 377 -177 415 -209 30 -25 37 -42 58 -129 75
-314 271 -468 484 -381 107 44 181 114 195 184 9 46 -18 68 -96 77 -35 4 -76
14 -91 22 -121 62 -183 382 -150 775 38 454 95 771 169 933 35 76 35 79 24
135 -19 90 -60 162 -108 189 -59 32 -121 38 -161 15z m-278 -1019 c-14 -115
-29 -279 -33 -365 l-7 -157 -135 84 c-74 46 -139 90 -144 98 -6 9 30 73 126
217 74 112 153 234 174 270 21 37 40 65 42 64 2 -1 -9 -97 -23 -211z"/>
<path d="M5761 2270 c-48 -78 -182 -409 -247 -610 -82 -254 -144 -615 -144
-839 0 -204 42 -341 123 -405 31 -25 49 -31 103 -34 76 -5 140 10 180 44 27
23 28 25 10 35 -10 6 -36 27 -56 45 -49 44 -60 90 -60 248 0 141 17 248 81
498 56 219 99 344 192 558 75 172 81 190 81 255 1 69 0 72 -47 138 -48 68 -90
98 -153 111 -30 7 -34 4 -63 -44z"/>
<path d="M5290 2290 c-61 -61 -252 -548 -316 -805 -144 -581 -132 -973 34
-1089 36 -26 51 -30 110 -30 76 0 125 14 164 47 l27 23 -47 35 c-75 55 -85 85
-85 263 0 132 4 170 32 303 61 291 129 506 245 776 65 150 77 188 78 236 1 98
-74 205 -170 241 -52 20 -52 20 -72 0z"/>
<path d="M7573 1796 c-168 -32 -299 -132 -370 -282 -33 -69 -37 -87 -41 -179
-4 -87 -2 -108 16 -148 35 -79 92 -129 215 -192 190 -96 223 -143 170 -248
-19 -38 -70 -67 -119 -67 -22 0 -94 19 -160 42 -147 51 -218 56 -259 18 -39
-36 -55 -73 -55 -125 0 -79 44 -135 140 -179 171 -78 403 -86 552 -19 152 68
246 256 236 473 -7 149 -70 230 -261 334 -59 32 -116 70 -127 84 -42 52 -16
123 59 161 58 30 101 34 199 17 116 -20 185 -20 223 -1 100 52 89 214 -19 269
-93 47 -273 66 -399 42z"/>
<path d="M4618 1779 c-13 -13 -65 -126 -117 -254 -221 -543 -393 -815 -515
-815 -36 0 -41 32 -22 130 37 182 120 432 202 609 72 154 63 190 -71 279 -118
77 -152 82 -179 25 -54 -112 -187 -510 -229 -683 -34 -138 -47 -226 -50 -324
-1 -70 2 -88 25 -131 32 -62 84 -116 146 -152 61 -36 145 -38 213 -5 58 28
143 113 222 221 l61 84 12 -75 c14 -92 41 -152 88 -199 58 -59 97 -72 187 -66
85 6 129 25 151 65 21 40 17 201 -5 236 l-18 27 -28 -38 c-35 -48 -69 -78 -78
-69 -4 3 2 59 12 124 38 247 128 539 227 736 60 119 59 142 -5 203 -49 48
-109 80 -165 89 -34 5 -44 3 -64 -17z"/>
<path d="M6443 1790 c-72 -11 -169 -59 -221 -110 -92 -89 -233 -338 -286 -503
-14 -43 -30 -112 -35 -153 -29 -238 100 -496 296 -590 47 -22 76 -29 148 -32
150 -7 274 40 376 141 112 113 224 387 261 641 16 111 -6 246 -57 352 -83 173
-291 282 -482 254z m158 -266 c35 -18 94 -130 105 -199 13 -91 -40 -321 -106
-460 -103 -215 -236 -284 -336 -173 -88 95 -102 266 -38 457 27 81 119 272
155 321 46 62 154 89 220 54z"/>
<path d="M3089 1779 c-62 -24 -112 -205 -193 -709 -14 -85 -31 -185 -37 -223
-36 -222 20 -413 134 -456 42 -16 132 -14 147 4 7 8 23 81 36 162 94 581 89
558 126 635 66 139 186 238 289 238 41 0 51 4 75 33 66 78 109 254 70 286 -37
31 -124 7 -260 -69 -49 -28 -93 -50 -98 -50 -4 0 -8 13 -8 28 0 75 -190 157
-281 121z"/>
<path d="M2228 1750 c-45 -28 -99 -237 -173 -680 -55 -326 -62 -401 -42 -489
19 -84 50 -151 83 -182 50 -46 184 -57 205 -17 6 11 35 172 64 357 30 186 63
361 73 389 59 154 184 269 306 280 64 6 85 24 126 112 36 79 49 165 30 200
-24 44 -136 14 -307 -84 -60 -34 -63 -35 -63 -14 0 35 -41 84 -89 108 -52 26
-184 38 -213 20z"/>
</g>
</svg>
